# xmcd
# Track frame offsets:
# 150
# 12204
# 27093
# 39514
# 52722
# 66645
# 80489
# 92146
# 104184
# 117518
# 127969
# 140486
# 153300
# 167093
# 179062
# 191693
# 205528
# 217805
#
# Disc length: 3059 seconds
# Revision: 0
# Processed by: cddbd v1.5.1PL2 Copyright (c) Steve Scherf et al.
# Submitted via: VisiTrax 2.10.0.248 - For more info visit www.synapsa.com
#
DISCID=fb0bf112
DTITLE=Various Artist - Country Hits
DYEAR=2004
DGENRE=Misc
TTITLE0=Sons Of The Preachers - Tumbling Tumbleweeds
TTITLE1=Gene Aurty - The Last Round Up
TTITLE2=Roy Acuff - The Prodigal Son
TTITLE3=Tex Ritter - Jealous Heart
TTITLE4=Hank Snow - The Blue Velvet Band
TTITLE5=Jimmie Rogers - My Old Pal
TTITLE6=Bill Monroe and His Bluesgrass Boys - Rocky Road Blues
TTITLE7=Bob Wills and His Texas Playboys - Time Changes Everything
TTITLE8=Carter Family - Coal Miner's Blues
TTITLE9=Wilf Carter - No Letter Today
TTITLE10=Jack Guthrie - Oklahoma Hills
TTITLE11=Spade Cooly - Shame On You
TTITLE12=Rex Griffen - The Last Letter
TTITLE13=Wilf Carter - Farewell Sweetheart Farewell
TTITLE14=Roy Acuff and His Smokey Mountain Boys - Night Train To Memphis
TTITLE15=Jimmie Rodgers - My Little Lady
TTITLE16=Bill Monroe and His Bluesgrass Boys - Mule Skinner Blues
TTITLE17=Gene Autry - Back To The Saddle Again
EXTD=
EXTT0=
EXTT1=
EXTT2=
EXTT3=
EXTT4=
EXTT5=
EXTT6=
EXTT7=
EXTT8=
EXTT9=
EXTT10=
EXTT11=
EXTT12=
EXTT13=
EXTT14=
EXTT15=
EXTT16=
EXTT17=
PLAYORDER=
